<?xml version="1.0" encoding="UTF-8"?>
<svg xmlns="http://www.w3.org/2000/svg" xmlns:xlink="http://www.w3.org/1999/xlink" width="100px" height="101px" viewBox="0 0 100 100" version="1.1">
<g id="surface1">
<path style=" stroke:none;fill-rule:nonzero;fill:rgb(0%,0%,0%);fill-opacity:1;" d="M 0 49.972656 L 0 99.945312 L 100.054688 99.945312 L 100.054688 0 L 0 0 Z M 97.640625 50.375 L 97.640625 97.546875 L 2.683594 97.546875 L 2.683594 3.199219 L 97.640625 3.199219 Z M 97.640625 50.375 "/>
<path style=" stroke:none;fill-rule:nonzero;fill:rgb(0%,0%,0%);fill-opacity:1;" d="M 5.902344 50.375 L 5.902344 94.351562 L 94.421875 94.351562 L 94.421875 6.398438 L 5.902344 6.398438 Z M 62.527344 23.453125 C 67.675781 23.960938 71.378906 25.054688 74.894531 27.132812 C 77.144531 28.464844 77.171875 28.519531 76.339844 30.382812 C 75.9375 31.261719 75.375 32.515625 75.082031 33.183594 L 74.570312 34.355469 L 73.363281 33.554688 C 71.726562 32.460938 68.078125 30.785156 66.121094 30.25 C 65.15625 29.984375 63.007812 29.742188 60.730469 29.664062 C 57.484375 29.53125 56.679688 29.585938 54.746094 30.089844 C 52.28125 30.703125 50.777344 31.476562 49.382812 32.835938 C 47.503906 34.648438 46.78125 37.738281 47.613281 40.21875 C 48.6875 43.445312 51.582031 44.9375 61.667969 47.441406 C 69.207031 49.308594 72.210938 50.585938 74.917969 53.066406 C 76.851562 54.824219 77.871094 56.503906 78.460938 58.929688 C 80.230469 66.445312 76.367188 73.132812 68.589844 75.90625 C 65.558594 77 62.957031 77.371094 58.878906 77.371094 C 53.300781 77.34375 48.578125 76.28125 44.257812 74.066406 C 42.140625 72.972656 38.894531 70.550781 38.894531 70.042969 C 38.894531 69.617188 41.363281 64.5 41.578125 64.5 C 41.683594 64.5 42.035156 64.820312 42.410156 65.191406 C 43.132812 65.9375 45.976562 67.855469 47.640625 68.710938 C 49.167969 69.484375 52.683594 70.574219 54.722656 70.894531 C 57 71.242188 61.453125 71.242188 63.4375 70.867188 C 66.738281 70.257812 69.769531 68.390625 70.84375 66.3125 C 71.539062 64.980469 71.78125 62.074219 71.351562 60.5 C 70.867188 58.742188 68.832031 56.875 66.148438 55.757812 C 64.96875 55.25 61.667969 54.265625 58.769531 53.542969 C 49.542969 51.199219 46.753906 50.054688 43.777344 47.308594 C 39.859375 43.710938 38.921875 37.632812 41.46875 32.328125 C 43.804688 27.480469 49.492188 24.148438 56.597656 23.453125 C 59.496094 23.1875 59.683594 23.1875 62.527344 23.453125 Z M 28.703125 50.375 L 28.703125 76.492188 L 21.460938 76.492188 L 21.460938 24.253906 L 28.703125 24.253906 Z M 28.703125 50.375 "/>
</g>
</svg>
